<svg width="237" height="46" viewBox="0 0 237 46" fill="none" xmlns="http://www.w3.org/2000/svg">
<rect width="237" height="46" rx="14" fill="white"/>
<rect x="0.5" y="0.5" width="236" height="45" rx="13.5" stroke="white" stroke-opacity="0.37"/>
<path d="M63.016 27.096C62.376 27.096 61.784 26.992 61.24 26.784C60.704 26.568 60.236 26.268 59.836 25.884C59.444 25.492 59.136 25.036 58.912 24.516C58.688 23.996 58.576 23.424 58.576 22.8C58.576 22.176 58.688 21.604 58.912 21.084C59.136 20.564 59.448 20.112 59.848 19.728C60.248 19.336 60.716 19.036 61.252 18.828C61.796 18.612 62.388 18.504 63.028 18.504C63.676 18.504 64.272 18.616 64.816 18.84C65.368 19.056 65.836 19.38 66.22 19.812L65.44 20.568C65.12 20.232 64.76 19.984 64.36 19.824C63.96 19.656 63.532 19.572 63.076 19.572C62.604 19.572 62.164 19.652 61.756 19.812C61.356 19.972 61.008 20.196 60.712 20.484C60.416 20.772 60.184 21.116 60.016 21.516C59.856 21.908 59.776 22.336 59.776 22.8C59.776 23.264 59.856 23.696 60.016 24.096C60.184 24.488 60.416 24.828 60.712 25.116C61.008 25.404 61.356 25.628 61.756 25.788C62.164 25.948 62.604 26.028 63.076 26.028C63.532 26.028 63.96 25.948 64.36 25.788C64.76 25.62 65.12 25.364 65.44 25.02L66.22 25.776C65.836 26.208 65.368 26.536 64.816 26.76C64.272 26.984 63.672 27.096 63.016 27.096ZM71.6298 27V25.656L71.5698 25.404V23.112C71.5698 22.624 71.4258 22.248 71.1378 21.984C70.8578 21.712 70.4338 21.576 69.8658 21.576C69.4898 21.576 69.1218 21.64 68.7618 21.768C68.4018 21.888 68.0978 22.052 67.8498 22.26L67.3698 21.396C67.6978 21.132 68.0898 20.932 68.5458 20.796C69.0098 20.652 69.4938 20.58 69.9978 20.58C70.8698 20.58 71.5418 20.792 72.0138 21.216C72.4858 21.64 72.7218 22.288 72.7218 23.16V27H71.6298ZM69.5418 27.072C69.0698 27.072 68.6538 26.992 68.2938 26.832C67.9418 26.672 67.6698 26.452 67.4778 26.172C67.2858 25.884 67.1898 25.56 67.1898 25.2C67.1898 24.856 67.2698 24.544 67.4298 24.264C67.5978 23.984 67.8658 23.76 68.2338 23.592C68.6098 23.424 69.1138 23.34 69.7458 23.34H71.7618V24.168H69.7938C69.2178 24.168 68.8298 24.264 68.6298 24.456C68.4298 24.648 68.3298 24.88 68.3298 25.152C68.3298 25.464 68.4538 25.716 68.7018 25.908C68.9498 26.092 69.2938 26.184 69.7338 26.184C70.1658 26.184 70.5418 26.088 70.8618 25.896C71.1898 25.704 71.4258 25.424 71.5698 25.056L71.7978 25.848C71.6458 26.224 71.3778 26.524 70.9938 26.748C70.6098 26.964 70.1258 27.072 69.5418 27.072ZM77.4817 27.072C76.8657 27.072 76.3137 26.936 75.8257 26.664C75.3457 26.392 74.9657 26.012 74.6857 25.524C74.4057 25.036 74.2657 24.468 74.2657 23.82C74.2657 23.172 74.4057 22.608 74.6857 22.128C74.9657 21.64 75.3457 21.26 75.8257 20.988C76.3137 20.716 76.8657 20.58 77.4817 20.58C78.0177 20.58 78.5017 20.7 78.9337 20.94C79.3657 21.18 79.7097 21.54 79.9657 22.02C80.2297 22.5 80.3617 23.1 80.3617 23.82C80.3617 24.54 80.2337 25.14 79.9777 25.62C79.7297 26.1 79.3897 26.464 78.9577 26.712C78.5257 26.952 78.0337 27.072 77.4817 27.072ZM77.5777 26.064C77.9777 26.064 78.3377 25.972 78.6577 25.788C78.9857 25.604 79.2417 25.344 79.4257 25.008C79.6177 24.664 79.7137 24.268 79.7137 23.82C79.7137 23.364 79.6177 22.972 79.4257 22.644C79.2417 22.308 78.9857 22.048 78.6577 21.864C78.3377 21.68 77.9777 21.588 77.5777 21.588C77.1697 21.588 76.8057 21.68 76.4857 21.864C76.1657 22.048 75.9097 22.308 75.7177 22.644C75.5257 22.972 75.4297 23.364 75.4297 23.82C75.4297 24.268 75.5257 24.664 75.7177 25.008C75.9097 25.344 76.1657 25.604 76.4857 25.788C76.8057 25.972 77.1697 26.064 77.5777 26.064ZM79.7497 27V25.284L79.8217 23.808L79.7017 22.332V18.096H80.8537V27H79.7497ZM86.9814 27V25.656L86.9214 25.404V23.112C86.9214 22.624 86.7774 22.248 86.4894 21.984C86.2094 21.712 85.7854 21.576 85.2174 21.576C84.8414 21.576 84.4734 21.64 84.1134 21.768C83.7534 21.888 83.4494 22.052 83.2014 22.26L82.7214 21.396C83.0494 21.132 83.4414 20.932 83.8974 20.796C84.3614 20.652 84.8454 20.58 85.3494 20.58C86.2214 20.58 86.8934 20.792 87.3654 21.216C87.8374 21.64 88.0734 22.288 88.0734 23.16V27H86.9814ZM84.8934 27.072C84.4214 27.072 84.0054 26.992 83.6454 26.832C83.2934 26.672 83.0214 26.452 82.8294 26.172C82.6374 25.884 82.5414 25.56 82.5414 25.2C82.5414 24.856 82.6214 24.544 82.7814 24.264C82.9494 23.984 83.2174 23.76 83.5854 23.592C83.9614 23.424 84.4654 23.34 85.0974 23.34H87.1134V24.168H85.1454C84.5694 24.168 84.1814 24.264 83.9814 24.456C83.7814 24.648 83.6814 24.88 83.6814 25.152C83.6814 25.464 83.8054 25.716 84.0534 25.908C84.3014 26.092 84.6454 26.184 85.0854 26.184C85.5174 26.184 85.8934 26.088 86.2134 25.896C86.5414 25.704 86.7774 25.424 86.9214 25.056L87.1494 25.848C86.9974 26.224 86.7294 26.524 86.3454 26.748C85.9614 26.964 85.4774 27.072 84.8934 27.072ZM92.0293 27.072C91.5013 27.072 90.9973 27 90.5173 26.856C90.0453 26.712 89.6733 26.536 89.4013 26.328L89.8813 25.416C90.1533 25.6 90.4893 25.756 90.8893 25.884C91.2893 26.012 91.6973 26.076 92.1133 26.076C92.6493 26.076 93.0333 26 93.2653 25.848C93.5053 25.696 93.6253 25.484 93.6253 25.212C93.6253 25.012 93.5533 24.856 93.4093 24.744C93.2653 24.632 93.0733 24.548 92.8333 24.492C92.6013 24.436 92.3413 24.388 92.0533 24.348C91.7653 24.3 91.4773 24.244 91.1893 24.18C90.9013 24.108 90.6373 24.012 90.3973 23.892C90.1573 23.764 89.9653 23.592 89.8213 23.376C89.6773 23.152 89.6053 22.856 89.6053 22.488C89.6053 22.104 89.7133 21.768 89.9293 21.48C90.1453 21.192 90.4493 20.972 90.8413 20.82C91.2413 20.66 91.7133 20.58 92.2573 20.58C92.6733 20.58 93.0933 20.632 93.5173 20.736C93.9493 20.832 94.3013 20.972 94.5733 21.156L94.0813 22.068C93.7933 21.876 93.4933 21.744 93.1813 21.672C92.8693 21.6 92.5573 21.564 92.2453 21.564C91.7413 21.564 91.3653 21.648 91.1173 21.816C90.8693 21.976 90.7453 22.184 90.7453 22.44C90.7453 22.656 90.8173 22.824 90.9613 22.944C91.1133 23.056 91.3053 23.144 91.5373 23.208C91.7773 23.272 92.0413 23.328 92.3293 23.376C92.6173 23.416 92.9053 23.472 93.1933 23.544C93.4813 23.608 93.7413 23.7 93.9733 23.82C94.2133 23.94 94.4053 24.108 94.5493 24.324C94.7013 24.54 94.7773 24.828 94.7773 25.188C94.7773 25.572 94.6653 25.904 94.4413 26.184C94.2173 26.464 93.9013 26.684 93.4933 26.844C93.0853 26.996 92.5973 27.072 92.0293 27.072ZM98.401 27.072C97.761 27.072 97.265 26.9 96.913 26.556C96.561 26.212 96.385 25.72 96.385 25.08V19.248H97.537V25.032C97.537 25.376 97.621 25.64 97.789 25.824C97.965 26.008 98.213 26.1 98.533 26.1C98.893 26.1 99.193 26 99.433 25.8L99.793 26.628C99.617 26.78 99.405 26.892 99.157 26.964C98.917 27.036 98.665 27.072 98.401 27.072ZM95.305 21.588V20.64H99.361V21.588H95.305ZM101.186 27V20.64H102.29V22.368L102.182 21.936C102.358 21.496 102.654 21.16 103.07 20.928C103.486 20.696 103.998 20.58 104.606 20.58V21.696C104.558 21.688 104.51 21.684 104.462 21.684C104.422 21.684 104.382 21.684 104.342 21.684C103.726 21.684 103.238 21.868 102.878 22.236C102.518 22.604 102.338 23.136 102.338 23.832V27H101.186ZM109.505 27V25.656L109.445 25.404V23.112C109.445 22.624 109.301 22.248 109.013 21.984C108.733 21.712 108.309 21.576 107.741 21.576C107.365 21.576 106.997 21.64 106.637 21.768C106.277 21.888 105.973 22.052 105.725 22.26L105.245 21.396C105.573 21.132 105.965 20.932 106.421 20.796C106.885 20.652 107.369 20.58 107.873 20.58C108.745 20.58 109.417 20.792 109.889 21.216C110.361 21.64 110.597 22.288 110.597 23.16V27H109.505ZM107.417 27.072C106.945 27.072 106.529 26.992 106.169 26.832C105.817 26.672 105.545 26.452 105.353 26.172C105.161 25.884 105.065 25.56 105.065 25.2C105.065 24.856 105.145 24.544 105.305 24.264C105.473 23.984 105.741 23.76 106.109 23.592C106.485 23.424 106.989 23.34 107.621 23.34H109.637V24.168H107.669C107.093 24.168 106.705 24.264 106.505 24.456C106.305 24.648 106.205 24.88 106.205 25.152C106.205 25.464 106.329 25.716 106.577 25.908C106.825 26.092 107.169 26.184 107.609 26.184C108.041 26.184 108.417 26.088 108.737 25.896C109.065 25.704 109.301 25.424 109.445 25.056L109.673 25.848C109.521 26.224 109.253 26.524 108.869 26.748C108.485 26.964 108.001 27.072 107.417 27.072ZM112.729 27V20.64H113.833V22.368L113.725 21.936C113.901 21.496 114.197 21.16 114.613 20.928C115.029 20.696 115.541 20.58 116.149 20.58V21.696C116.101 21.688 116.053 21.684 116.005 21.684C115.965 21.684 115.925 21.684 115.885 21.684C115.269 21.684 114.781 21.868 114.421 22.236C114.061 22.604 113.881 23.136 113.881 23.832V27H112.729ZM117.137 24.204V23.208H120.365V24.204H117.137ZM123.963 27.072C123.435 27.072 122.931 27 122.451 26.856C121.979 26.712 121.607 26.536 121.335 26.328L121.815 25.416C122.087 25.6 122.423 25.756 122.823 25.884C123.223 26.012 123.631 26.076 124.047 26.076C124.583 26.076 124.967 26 125.199 25.848C125.439 25.696 125.559 25.484 125.559 25.212C125.559 25.012 125.487 24.856 125.343 24.744C125.199 24.632 125.007 24.548 124.767 24.492C124.535 24.436 124.275 24.388 123.987 24.348C123.699 24.3 123.411 24.244 123.123 24.18C122.835 24.108 122.571 24.012 122.331 23.892C122.091 23.764 121.899 23.592 121.755 23.376C121.611 23.152 121.539 22.856 121.539 22.488C121.539 22.104 121.647 21.768 121.863 21.48C122.079 21.192 122.383 20.972 122.775 20.82C123.175 20.66 123.647 20.58 124.191 20.58C124.607 20.58 125.027 20.632 125.451 20.736C125.883 20.832 126.235 20.972 126.507 21.156L126.015 22.068C125.727 21.876 125.427 21.744 125.115 21.672C124.803 21.6 124.491 21.564 124.179 21.564C123.675 21.564 123.299 21.648 123.051 21.816C122.803 21.976 122.679 22.184 122.679 22.44C122.679 22.656 122.751 22.824 122.895 22.944C123.047 23.056 123.239 23.144 123.471 23.208C123.711 23.272 123.975 23.328 124.263 23.376C124.551 23.416 124.839 23.472 125.127 23.544C125.415 23.608 125.675 23.7 125.907 23.82C126.147 23.94 126.339 24.108 126.483 24.324C126.635 24.54 126.711 24.828 126.711 25.188C126.711 25.572 126.599 25.904 126.375 26.184C126.151 26.464 125.835 26.684 125.427 26.844C125.019 26.996 124.531 27.072 123.963 27.072ZM130.983 27.072C130.303 27.072 129.703 26.932 129.183 26.652C128.671 26.372 128.271 25.988 127.983 25.5C127.703 25.012 127.563 24.452 127.563 23.82C127.563 23.188 127.699 22.628 127.971 22.14C128.251 21.652 128.631 21.272 129.111 21C129.599 20.72 130.147 20.58 130.755 20.58C131.371 20.58 131.915 20.716 132.387 20.988C132.859 21.26 133.227 21.644 133.491 22.14C133.763 22.628 133.899 23.2 133.899 23.856C133.899 23.904 133.895 23.96 133.887 24.024C133.887 24.088 133.883 24.148 133.875 24.204H128.463V23.376H133.275L132.807 23.664C132.815 23.256 132.731 22.892 132.555 22.572C132.379 22.252 132.135 22.004 131.823 21.828C131.519 21.644 131.163 21.552 130.755 21.552C130.355 21.552 129.999 21.644 129.687 21.828C129.375 22.004 129.131 22.256 128.955 22.584C128.779 22.904 128.691 23.272 128.691 23.688V23.88C128.691 24.304 128.787 24.684 128.979 25.02C129.179 25.348 129.455 25.604 129.807 25.788C130.159 25.972 130.563 26.064 131.019 26.064C131.395 26.064 131.735 26 132.039 25.872C132.351 25.744 132.623 25.552 132.855 25.296L133.491 26.04C133.203 26.376 132.843 26.632 132.411 26.808C131.987 26.984 131.511 27.072 130.983 27.072ZM141.493 27.072C140.845 27.072 140.265 26.932 139.753 26.652C139.249 26.372 138.853 25.988 138.565 25.5C138.277 25.012 138.133 24.452 138.133 23.82C138.133 23.188 138.277 22.628 138.565 22.14C138.853 21.652 139.249 21.272 139.753 21C140.265 20.72 140.845 20.58 141.493 20.58C142.069 20.58 142.581 20.696 143.029 20.928C143.485 21.152 143.837 21.488 144.085 21.936L143.209 22.5C143.001 22.188 142.745 21.96 142.441 21.816C142.145 21.664 141.825 21.588 141.481 21.588C141.065 21.588 140.693 21.68 140.365 21.864C140.037 22.048 139.777 22.308 139.585 22.644C139.393 22.972 139.297 23.364 139.297 23.82C139.297 24.276 139.393 24.672 139.585 25.008C139.777 25.344 140.037 25.604 140.365 25.788C140.693 25.972 141.065 26.064 141.481 26.064C141.825 26.064 142.145 25.992 142.441 25.848C142.745 25.696 143.001 25.464 143.209 25.152L144.085 25.704C143.837 26.144 143.485 26.484 143.029 26.724C142.581 26.956 142.069 27.072 141.493 27.072ZM148.207 27.072C147.567 27.072 146.999 26.932 146.503 26.652C146.007 26.372 145.615 25.988 145.327 25.5C145.039 25.004 144.895 24.444 144.895 23.82C144.895 23.188 145.039 22.628 145.327 22.14C145.615 21.652 146.007 21.272 146.503 21C146.999 20.72 147.567 20.58 148.207 20.58C148.839 20.58 149.403 20.72 149.899 21C150.403 21.272 150.795 21.652 151.075 22.14C151.363 22.62 151.507 23.18 151.507 23.82C151.507 24.452 151.363 25.012 151.075 25.5C150.795 25.988 150.403 26.372 149.899 26.652C149.403 26.932 148.839 27.072 148.207 27.072ZM148.207 26.064C148.615 26.064 148.979 25.972 149.299 25.788C149.627 25.604 149.883 25.344 150.067 25.008C150.251 24.664 150.343 24.268 150.343 23.82C150.343 23.364 150.251 22.972 150.067 22.644C149.883 22.308 149.627 22.048 149.299 21.864C148.979 21.68 148.615 21.588 148.207 21.588C147.799 21.588 147.435 21.68 147.115 21.864C146.795 22.048 146.539 22.308 146.347 22.644C146.155 22.972 146.059 23.364 146.059 23.82C146.059 24.268 146.155 24.664 146.347 25.008C146.539 25.344 146.795 25.604 147.115 25.788C147.435 25.972 147.799 26.064 148.207 26.064ZM161.056 20.58C161.568 20.58 162.02 20.68 162.412 20.88C162.804 21.08 163.108 21.384 163.324 21.792C163.548 22.2 163.66 22.716 163.66 23.34V27H162.508V23.472C162.508 22.856 162.364 22.392 162.076 22.08C161.788 21.768 161.384 21.612 160.864 21.612C160.48 21.612 160.144 21.692 159.856 21.852C159.568 22.012 159.344 22.248 159.184 22.56C159.032 22.872 158.956 23.26 158.956 23.724V27H157.804V23.472C157.804 22.856 157.66 22.392 157.372 22.08C157.092 21.768 156.688 21.612 156.16 21.612C155.784 21.612 155.452 21.692 155.164 21.852C154.876 22.012 154.652 22.248 154.492 22.56C154.332 22.872 154.252 23.26 154.252 23.724V27H153.1V20.64H154.204V22.332L154.024 21.9C154.224 21.484 154.532 21.16 154.948 20.928C155.364 20.696 155.848 20.58 156.4 20.58C157.008 20.58 157.532 20.732 157.972 21.036C158.412 21.332 158.7 21.784 158.836 22.392L158.368 22.2C158.56 21.712 158.896 21.32 159.376 21.024C159.856 20.728 160.416 20.58 161.056 20.58ZM171.726 27.072C171.086 27.072 170.518 26.932 170.022 26.652C169.526 26.372 169.134 25.988 168.846 25.5C168.558 25.004 168.414 24.444 168.414 23.82C168.414 23.188 168.558 22.628 168.846 22.14C169.134 21.652 169.526 21.272 170.022 21C170.518 20.72 171.086 20.58 171.726 20.58C172.358 20.58 172.922 20.72 173.418 21C173.922 21.272 174.314 21.652 174.594 22.14C174.882 22.62 175.026 23.18 175.026 23.82C175.026 24.452 174.882 25.012 174.594 25.5C174.314 25.988 173.922 26.372 173.418 26.652C172.922 26.932 172.358 27.072 171.726 27.072ZM171.726 26.064C172.134 26.064 172.498 25.972 172.818 25.788C173.146 25.604 173.402 25.344 173.586 25.008C173.77 24.664 173.862 24.268 173.862 23.82C173.862 23.364 173.77 22.972 173.586 22.644C173.402 22.308 173.146 22.048 172.818 21.864C172.498 21.68 172.134 21.588 171.726 21.588C171.318 21.588 170.954 21.68 170.634 21.864C170.314 22.048 170.058 22.308 169.866 22.644C169.674 22.972 169.578 23.364 169.578 23.82C169.578 24.268 169.674 24.664 169.866 25.008C170.058 25.344 170.314 25.604 170.634 25.788C170.954 25.972 171.318 26.064 171.726 26.064ZM183.802 27.096C183.154 27.096 182.558 26.992 182.014 26.784C181.47 26.568 180.998 26.268 180.598 25.884C180.198 25.492 179.886 25.036 179.662 24.516C179.438 23.996 179.326 23.424 179.326 22.8C179.326 22.176 179.438 21.604 179.662 21.084C179.886 20.564 180.198 20.112 180.598 19.728C181.006 19.336 181.482 19.036 182.026 18.828C182.57 18.612 183.17 18.504 183.826 18.504C184.49 18.504 185.098 18.612 185.65 18.828C186.202 19.044 186.67 19.368 187.054 19.8L186.31 20.544C185.966 20.208 185.59 19.964 185.182 19.812C184.782 19.652 184.346 19.572 183.874 19.572C183.394 19.572 182.946 19.652 182.53 19.812C182.122 19.972 181.766 20.196 181.462 20.484C181.166 20.772 180.934 21.116 180.766 21.516C180.606 21.908 180.526 22.336 180.526 22.8C180.526 23.256 180.606 23.684 180.766 24.084C180.934 24.476 181.166 24.82 181.462 25.116C181.766 25.404 182.122 25.628 182.53 25.788C182.938 25.948 183.382 26.028 183.862 26.028C184.31 26.028 184.738 25.96 185.146 25.824C185.562 25.68 185.946 25.444 186.298 25.116L186.982 26.028C186.566 26.38 186.078 26.648 185.518 26.832C184.966 27.008 184.394 27.096 183.802 27.096ZM185.83 25.872V22.752H186.982V26.028L185.83 25.872ZM191.836 27.072C191.196 27.072 190.628 26.932 190.132 26.652C189.636 26.372 189.244 25.988 188.956 25.5C188.668 25.004 188.524 24.444 188.524 23.82C188.524 23.188 188.668 22.628 188.956 22.14C189.244 21.652 189.636 21.272 190.132 21C190.628 20.72 191.196 20.58 191.836 20.58C192.468 20.58 193.032 20.72 193.528 21C194.032 21.272 194.424 21.652 194.704 22.14C194.992 22.62 195.136 23.18 195.136 23.82C195.136 24.452 194.992 25.012 194.704 25.5C194.424 25.988 194.032 26.372 193.528 26.652C193.032 26.932 192.468 27.072 191.836 27.072ZM191.836 26.064C192.244 26.064 192.608 25.972 192.928 25.788C193.256 25.604 193.512 25.344 193.696 25.008C193.88 24.664 193.972 24.268 193.972 23.82C193.972 23.364 193.88 22.972 193.696 22.644C193.512 22.308 193.256 22.048 192.928 21.864C192.608 21.68 192.244 21.588 191.836 21.588C191.428 21.588 191.064 21.68 190.744 21.864C190.424 22.048 190.168 22.308 189.976 22.644C189.784 22.972 189.688 23.364 189.688 23.82C189.688 24.268 189.784 24.664 189.976 25.008C190.168 25.344 190.424 25.604 190.744 25.788C191.064 25.972 191.428 26.064 191.836 26.064ZM199.453 27.072C198.813 27.072 198.245 26.932 197.749 26.652C197.253 26.372 196.861 25.988 196.573 25.5C196.285 25.004 196.141 24.444 196.141 23.82C196.141 23.188 196.285 22.628 196.573 22.14C196.861 21.652 197.253 21.272 197.749 21C198.245 20.72 198.813 20.58 199.453 20.58C200.085 20.58 200.649 20.72 201.145 21C201.649 21.272 202.041 21.652 202.321 22.14C202.609 22.62 202.753 23.18 202.753 23.82C202.753 24.452 202.609 25.012 202.321 25.5C202.041 25.988 201.649 26.372 201.145 26.652C200.649 26.932 200.085 27.072 199.453 27.072ZM199.453 26.064C199.861 26.064 200.225 25.972 200.545 25.788C200.873 25.604 201.129 25.344 201.313 25.008C201.497 24.664 201.589 24.268 201.589 23.82C201.589 23.364 201.497 22.972 201.313 22.644C201.129 22.308 200.873 22.048 200.545 21.864C200.225 21.68 199.861 21.588 199.453 21.588C199.045 21.588 198.681 21.68 198.361 21.864C198.041 22.048 197.785 22.308 197.593 22.644C197.401 22.972 197.305 23.364 197.305 23.82C197.305 24.268 197.401 24.664 197.593 25.008C197.785 25.344 198.041 25.604 198.361 25.788C198.681 25.972 199.045 26.064 199.453 26.064ZM207.13 29.4C206.546 29.4 205.978 29.316 205.426 29.148C204.882 28.988 204.438 28.756 204.094 28.452L204.646 27.564C204.942 27.82 205.306 28.02 205.738 28.164C206.17 28.316 206.622 28.392 207.094 28.392C207.846 28.392 208.398 28.216 208.75 27.864C209.102 27.512 209.278 26.976 209.278 26.256V24.912L209.398 23.652L209.338 22.38V20.64H210.43V26.136C210.43 27.256 210.15 28.08 209.59 28.608C209.03 29.136 208.21 29.4 207.13 29.4ZM206.986 26.736C206.37 26.736 205.818 26.608 205.33 26.352C204.85 26.088 204.466 25.724 204.178 25.26C203.898 24.796 203.758 24.26 203.758 23.652C203.758 23.036 203.898 22.5 204.178 22.044C204.466 21.58 204.85 21.22 205.33 20.964C205.818 20.708 206.37 20.58 206.986 20.58C207.53 20.58 208.026 20.692 208.474 20.916C208.922 21.132 209.278 21.468 209.542 21.924C209.814 22.38 209.95 22.956 209.95 23.652C209.95 24.34 209.814 24.912 209.542 25.368C209.278 25.824 208.922 26.168 208.474 26.4C208.026 26.624 207.53 26.736 206.986 26.736ZM207.118 25.728C207.542 25.728 207.918 25.64 208.246 25.464C208.574 25.288 208.83 25.044 209.014 24.732C209.206 24.42 209.302 24.06 209.302 23.652C209.302 23.244 209.206 22.884 209.014 22.572C208.83 22.26 208.574 22.02 208.246 21.852C207.918 21.676 207.542 21.588 207.118 21.588C206.694 21.588 206.314 21.676 205.978 21.852C205.65 22.02 205.39 22.26 205.198 22.572C205.014 22.884 204.922 23.244 204.922 23.652C204.922 24.06 205.014 24.42 205.198 24.732C205.39 25.044 205.65 25.288 205.978 25.464C206.314 25.64 206.694 25.728 207.118 25.728ZM212.631 27V18.096H213.783V27H212.631ZM218.815 27.072C218.135 27.072 217.535 26.932 217.015 26.652C216.503 26.372 216.103 25.988 215.815 25.5C215.535 25.012 215.395 24.452 215.395 23.82C215.395 23.188 215.531 22.628 215.803 22.14C216.083 21.652 216.463 21.272 216.943 21C217.431 20.72 217.979 20.58 218.587 20.58C219.203 20.58 219.747 20.716 220.219 20.988C220.691 21.26 221.059 21.644 221.323 22.14C221.595 22.628 221.731 23.2 221.731 23.856C221.731 23.904 221.727 23.96 221.719 24.024C221.719 24.088 221.715 24.148 221.707 24.204H216.295V23.376H221.107L220.639 23.664C220.647 23.256 220.563 22.892 220.387 22.572C220.211 22.252 219.967 22.004 219.655 21.828C219.351 21.644 218.995 21.552 218.587 21.552C218.187 21.552 217.831 21.644 217.519 21.828C217.207 22.004 216.963 22.256 216.787 22.584C216.611 22.904 216.523 23.272 216.523 23.688V23.88C216.523 24.304 216.619 24.684 216.811 25.02C217.011 25.348 217.287 25.604 217.639 25.788C217.991 25.972 218.395 26.064 218.851 26.064C219.227 26.064 219.567 26 219.871 25.872C220.183 25.744 220.455 25.552 220.687 25.296L221.323 26.04C221.035 26.376 220.675 26.632 220.243 26.808C219.819 26.984 219.343 27.072 218.815 27.072Z" fill="#6F6F6F"/>
<path d="M17.2704 17.679C18.0302 16.1317 19.1037 14.824 20.4566 13.7365C22.2898 12.2563 24.3927 11.3653 26.7504 11.0923C29.5199 10.7713 32.1228 11.2839 34.5295 12.6922C35.1276 13.0419 35.6864 13.4395 36.2206 13.8707C36.353 13.9761 36.3383 14.0383 36.2255 14.1437C35.1325 15.2072 34.0394 16.2707 32.9561 17.3437C32.8286 17.4682 32.76 17.4587 32.6228 17.3581C29.4464 14.9677 24.8143 15.6144 22.4467 18.776C22.0301 19.3317 21.6918 19.9305 21.4565 20.582C21.4369 20.6395 21.3977 20.6922 21.3683 20.7497C20.736 20.2802 20.0988 19.8107 19.4713 19.3365C18.7361 18.7856 18.0008 18.2347 17.2704 17.679Z" fill="#E94335"/>
<path d="M21.3685 25.2428C21.5793 25.6979 21.7558 26.1722 22.0205 26.5985C23.1332 28.3805 24.7213 29.5254 26.8144 29.9326C28.7015 30.3015 30.5152 30.0524 32.2063 29.1278C32.2651 29.0991 32.324 29.0704 32.3779 29.0416C32.4073 29.0704 32.4318 29.1039 32.4612 29.1278C33.7259 30.0859 34.9954 31.044 36.2601 32.0021C35.6522 32.5913 34.9611 33.0655 34.2258 33.4775C32.0936 34.6655 29.7848 35.1446 27.3536 34.9625C24.3243 34.7326 21.7116 33.5637 19.5549 31.456C18.6088 30.5314 17.8294 29.4871 17.2657 28.2943C17.7902 27.9015 18.3147 27.5135 18.8392 27.1207C19.6823 26.4931 20.5254 25.8704 21.3685 25.2428Z" fill="#34A853"/>
<path d="M36.2648 32.0022C35.0002 31.0441 33.7306 30.0861 32.466 29.128C32.4366 29.104 32.4072 29.0705 32.3827 29.0418C32.8189 28.7112 33.265 28.3903 33.6228 27.9687C34.2208 27.2693 34.6179 26.4789 34.8237 25.5927C34.8482 25.4825 34.8286 25.4442 34.7159 25.449C34.6571 25.4538 34.6032 25.449 34.5443 25.449C32.5444 25.449 30.5396 25.4442 28.5397 25.4538C28.3191 25.4538 28.2701 25.3963 28.275 25.1903C28.2848 23.8011 28.2848 22.4119 28.275 21.0227C28.275 20.8454 28.324 20.7975 28.5054 20.7975C32.1719 20.8023 35.8384 20.8023 39.5098 20.7975C39.6667 20.7975 39.7304 20.8358 39.7696 20.9987C40.0686 22.3161 40.049 23.6382 39.8676 24.9699C39.7206 26.0334 39.4559 27.0633 39.049 28.0597C38.4461 29.5304 37.5589 30.8142 36.3923 31.916C36.3482 31.9495 36.3041 31.9735 36.2648 32.0022Z" fill="#4285F3"/>
<path d="M21.3685 25.243C20.5254 25.8706 19.6823 26.4933 18.8392 27.1209C18.3147 27.5089 17.7903 27.9017 17.2658 28.2945C16.8589 27.5568 16.5942 26.776 16.3785 25.9712C15.9668 24.4143 15.9031 22.8335 16.1286 21.2479C16.305 20.0024 16.6727 18.8048 17.2658 17.6838C18.001 18.2347 18.7314 18.7904 19.4667 19.3413C20.099 19.8155 20.7313 20.285 21.3636 20.7545C21.2558 21.267 21.1038 21.77 21.0548 22.297C20.9666 23.255 21.0597 24.1892 21.3391 25.1089C21.3587 25.1472 21.3636 25.1951 21.3685 25.243Z" fill="#FABB06"/>
</svg>
